<svg width="1200" height="220" viewBox="0 0 1200 220" fill="none" xmlns="http://www.w3.org/2000/svg">
  <rect width="1200" height="220" rx="28" fill="#FFF7ED"/>
  <text x="600" y="64" text-anchor="middle" fill="#66402B" font-family="Verdana, sans-serif" font-size="28" font-weight="700">Thanks for visiting Gutu</text>
  <text x="600" y="98" text-anchor="middle" fill="#8A6048" font-family="Verdana, sans-serif" font-size="18">If you build on top of it, try to keep the code as understandable as the mascot looks.</text>
  <g transform="translate(520 112)">
    <animateTransform attributeName="transform" type="translate" values="520 112;520 106;520 112" dur="3.3s" repeatCount="indefinite"/>
    <path d="M80 0C122 0 149 32 160 69L176 128C183 156 162 182 132 182H28C-2 182 -23 156 -16 128L0 69C11 32 38 0 80 0Z" fill="#FFFCF5" stroke="#6F3B21" stroke-width="8"/>
    <ellipse cx="56" cy="88" rx="12" ry="16" fill="#5B241B"/>
    <ellipse cx="106" cy="88" rx="12" ry="16" fill="#5B241B"/>
    <path d="M66 118C76 130 86 130 96 118" stroke="#D96E57" stroke-width="8" stroke-linecap="round"/>
    <rect x="48" y="108" width="66" height="46" rx="12" fill="#202028"/>
    <g transform="translate(-24 76)">
      <animateTransform attributeName="transform" type="rotate" values="-8 24 24;8 24 24;-8 24 24" dur="2.2s" repeatCount="indefinite"/>
      <path d="M14 14C10 2 15 -10 28 -12C40 -14 51 -3 52 11C53 24 41 38 27 40C16 42 7 30 10 19" stroke="#6F3B21" stroke-width="10" stroke-linecap="round"/>
    </g>
  </g>
</svg>
