<svg width="1200" height="560" viewBox="0 0 1200 560" fill="none" xmlns="http://www.w3.org/2000/svg">
  <defs>
    <linearGradient id="bg" x1="90" y1="40" x2="1110" y2="520" gradientUnits="userSpaceOnUse">
      <stop stop-color="#FFF8E7"/>
      <stop offset="0.48" stop-color="#FFF1D6"/>
      <stop offset="1" stop-color="#FFE2C7"/>
    </linearGradient>
    <linearGradient id="panel" x1="694" y1="118" x2="1010" y2="460" gradientUnits="userSpaceOnUse">
      <stop stop-color="#FFFDF8"/>
      <stop offset="1" stop-color="#FFF3E8"/>
    </linearGradient>
    <filter id="shadow" x="0" y="0" width="1200" height="560" filterUnits="userSpaceOnUse" color-interpolation-filters="sRGB">
      <feDropShadow dx="0" dy="18" stdDeviation="20" flood-color="#D18A57" flood-opacity="0.16"/>
    </filter>
  </defs>

  <rect width="1200" height="560" rx="36" fill="url(#bg)"/>
  <path d="M73 457C178 385 296 380 421 443C538 502 652 509 780 443C924 367 1047 372 1135 436V560H73V457Z" fill="#F6D9BC" opacity="0.7"/>
  <circle cx="142" cy="110" r="34" fill="#FFF7F0"/>
  <circle cx="1047" cy="108" r="28" fill="#FFF7F0"/>
  <circle cx="1098" cy="150" r="14" fill="#FFF7F0"/>
  <circle cx="196" cy="70" r="10" fill="#FFF7F0"/>

  <g filter="url(#shadow)">
    <rect x="670" y="92" width="458" height="376" rx="28" fill="url(#panel)"/>
  </g>

  <g opacity="0.95">
    <rect x="700" y="128" width="150" height="72" rx="20" fill="#FFFFFF"/>
    <rect x="872" y="128" width="222" height="72" rx="20" fill="#FFFFFF"/>
    <rect x="700" y="224" width="394" height="94" rx="22" fill="#FFFFFF"/>
    <rect x="700" y="342" width="186" height="94" rx="22" fill="#FFFFFF"/>
    <rect x="908" y="342" width="186" height="94" rx="22" fill="#FFFFFF"/>
    <rect x="724" y="152" width="96" height="14" rx="7" fill="#FFE0C2"/>
    <rect x="896" y="152" width="122" height="14" rx="7" fill="#FFD4AF"/>
    <rect x="896" y="174" width="162" height="10" rx="5" fill="#F2E3D2"/>
    <rect x="724" y="248" width="194" height="14" rx="7" fill="#FFD3B3"/>
    <rect x="724" y="272" width="322" height="10" rx="5" fill="#F1E3D6"/>
    <rect x="724" y="292" width="266" height="10" rx="5" fill="#F1E3D6"/>
    <rect x="724" y="366" width="118" height="14" rx="7" fill="#FFD19C"/>
    <rect x="724" y="389" width="102" height="10" rx="5" fill="#F1E3D6"/>
    <rect x="932" y="366" width="118" height="14" rx="7" fill="#FFD19C"/>
    <rect x="932" y="389" width="102" height="10" rx="5" fill="#F1E3D6"/>
  </g>

  <g transform="translate(250 104)">
    <animateTransform attributeName="transform" type="translate" values="250 104;250 90;250 104" dur="4.8s" repeatCount="indefinite"/>
    <path d="M160 0C244 0 298 66 320 144L352 272C366 332 323 388 262 388H58C-3 388 -46 332 -32 272L0 144C22 66 76 0 160 0Z" fill="#FFFCF5" stroke="#6F3B21" stroke-width="10"/>
    <ellipse cx="86" cy="94" rx="12" ry="18" fill="#C28A56"/>
    <ellipse cx="117" cy="58" rx="9" ry="13" fill="#F0D6A5"/>
    <ellipse cx="194" cy="66" rx="11" ry="16" fill="#E0A36A"/>
    <ellipse cx="238" cy="108" rx="10" ry="15" fill="#F1D2A4"/>
    <ellipse cx="280" cy="92" rx="9" ry="13" fill="#D99457"/>
    <ellipse cx="160" cy="30" rx="10" ry="15" fill="#E9C38B"/>

    <ellipse cx="110" cy="198" rx="18" ry="22" fill="#5B241B"/>
    <ellipse cx="213" cy="198" rx="18" ry="22" fill="#5B241B"/>
    <circle cx="114" cy="192" r="5" fill="#FFF9F2"/>
    <circle cx="217" cy="192" r="5" fill="#FFF9F2"/>
    <path d="M134 247C152 270 181 273 199 247" stroke="#D96E57" stroke-width="10" stroke-linecap="round"/>
    <path d="M86 246C73 241 63 232 59 220" stroke="#E88783" stroke-width="8" stroke-linecap="round"/>
    <path d="M234 246C247 241 257 232 261 220" stroke="#E88783" stroke-width="8" stroke-linecap="round"/>
    <path d="M96 140C108 132 122 132 134 140" stroke="#6F3B21" stroke-width="8" stroke-linecap="round"/>
    <path d="M187 140C199 132 213 132 225 140" stroke="#6F3B21" stroke-width="8" stroke-linecap="round"/>

    <g transform="translate(-24 186)">
      <animateTransform attributeName="transform" type="rotate" values="-8 24 14;8 24 14;-8 24 14" dur="2.6s" repeatCount="indefinite"/>
      <path d="M14 12C10 2 15 -8 25 -10C37 -12 47 -2 48 10C49 24 38 36 26 38C16 40 8 31 10 21" stroke="#6F3B21" stroke-width="10" stroke-linecap="round"/>
      <path d="M36 -30V-12" stroke="#FFFFFF" stroke-width="8" stroke-linecap="round"/>
      <path d="M54 -24V-8" stroke="#FFFFFF" stroke-width="8" stroke-linecap="round"/>
    </g>

    <g transform="translate(315 194)">
      <animateTransform attributeName="transform" type="rotate" values="6 4 18;-5 4 18;6 4 18" dur="2.9s" repeatCount="indefinite"/>
      <path d="M14 12C10 2 15 -8 25 -10C37 -12 47 -2 48 10C49 24 38 36 26 38C16 40 8 31 10 21" stroke="#6F3B21" stroke-width="10" stroke-linecap="round"/>
    </g>

    <rect x="82" y="250" width="156" height="120" rx="18" fill="#1E1D26"/>
    <rect x="95" y="264" width="130" height="82" rx="12" fill="#30303D"/>
    <path d="M136 416V374" stroke="#6F3B21" stroke-width="10" stroke-linecap="round"/>
    <path d="M220 416V374" stroke="#6F3B21" stroke-width="10" stroke-linecap="round"/>
    <path d="M136 416C127 439 116 451 98 454" stroke="#6F3B21" stroke-width="10" stroke-linecap="round"/>
    <path d="M220 416C229 439 240 451 258 454" stroke="#6F3B21" stroke-width="10" stroke-linecap="round"/>
  </g>

  <g>
    <text x="692" y="170" fill="#5C3424" font-family="Verdana, sans-serif" font-size="52" font-weight="700">Gutu</text>
    <text x="692" y="216" fill="#8A5B42" font-family="Verdana, sans-serif" font-size="24">A cheerful framework for serious products.</text>
    <text x="692" y="266" fill="#7A513B" font-family="Verdana, sans-serif" font-size="21">Build apps with plugins, explicit contracts,</text>
    <text x="692" y="296" fill="#7A513B" font-family="Verdana, sans-serif" font-size="21">an AI-ready admin workbench, and a release path</text>
    <text x="692" y="326" fill="#7A513B" font-family="Verdana, sans-serif" font-size="21">that already thinks about governance, docs, and trust.</text>

    <g>
      <rect x="692" y="364" width="132" height="42" rx="21" fill="#FFDFC1"/>
      <text x="758" y="390" text-anchor="middle" fill="#6D3D2B" font-family="Verdana, sans-serif" font-size="16" font-weight="700">AI-first</text>
    </g>
    <g>
      <rect x="838" y="364" width="156" height="42" rx="21" fill="#FFECCC"/>
      <text x="916" y="390" text-anchor="middle" fill="#6D3D2B" font-family="Verdana, sans-serif" font-size="16" font-weight="700">plugin-governed</text>
    </g>
    <g>
      <rect x="1008" y="364" width="88" height="42" rx="21" fill="#FFF0DB"/>
      <text x="1052" y="390" text-anchor="middle" fill="#6D3D2B" font-family="Verdana, sans-serif" font-size="16" font-weight="700">Bun</text>
    </g>
  </g>
</svg>
